# xmcd CD database file
#
# Track frame offsets:
#	150
#	27878
#	48661
#	79827
#	109767
#	128050
#	159698
#	185361
#	207968
#	240523
#	267220
#	292948
#	332020
#
# Disc length: 4711 seconds
#
# Revision: 0
# Processed by: cddbd v1.5.2PL0 Copyright (c) Steve Scherf et al.
# Submitted via: CDex 1.79
#
DISCID=b112650d
DTITLE=Zaperoko - Lo Esencial CD1
DYEAR=2010
DGENRE=Salsa
TTITLE0=LA REVANCHA
TTITLE1=GRACIAS
TTITLE2=CHIM PUM CALLAO
TTITLE3=HACHA Y MACHETE
TTITLE4=MALA MUJER
TTITLE5=NO SOY PARA TI
TTITLE6=MENDIGO DE AMOR
TTITLE7=LA CHICA DE CHICAGO
TTITLE8=EL SWING
TTITLE9=PERIQUITO PIN PIN
TTITLE10=EL TODOPODEROSO
TTITLE11=ASI SE COMPONE UN SON
TTITLE12=DIGO YO
EXTD=YEAR: 2010
EXTT0=
EXTT1=
EXTT2=
EXTT3=
EXTT4=
EXTT5=
EXTT6=
EXTT7=
EXTT8=
EXTT9=
EXTT10=
EXTT11=
EXTT12=
PLAYORDER=
